<svg width="568" height="685" viewBox="0 0 568 685" fill="none" xmlns="http://www.w3.org/2000/svg">
<path fill-rule="evenodd" clip-rule="evenodd" d="M301.964 126.799C304.53 142.22 306.208 148.748 311.373 158.003C313.084 161.069 324.205 166.187 326.771 167.043C331.217 168.528 319.994 180.196 320.783 183.344C321.69 186.961 310.378 183.083 304.735 187.92C298.135 193.578 273.701 221.337 268.241 229.376C266.496 231.948 265.824 235.586 266.342 239.657C267.099 245.587 266.43 246.662 254.967 257.952L242.789 269.946L239.508 265.663C237.705 263.307 234.163 257.601 231.64 252.983C227.176 244.818 227.08 244.047 228.172 224.911C228.952 211.234 228.702 204.521 227.354 202.893C224.702 199.694 204.72 199.694 202.068 202.893C200.718 204.522 200.471 211.253 201.255 225.015C202.348 244.179 202.246 245.027 197.984 252.231C188.482 268.288 189.693 268.603 179.028 247.303C173.775 236.816 167.745 227.019 165.623 225.53C162.277 223.182 153.293 222.827 97.5643 222.834C62.2525 222.839 25.856 223.341 16.6807 223.95L28.2289 248.528L41.3083 273.76L61.4022 314.69L81.4977 355.62L40.7489 356.079C1.41658 356.521 0 359.935 0 359.935C0 363.279 1.41657 363.331 92.2452 363.331H184.492L188.378 369.756C190.514 373.291 193.36 377.917 194.701 380.037L197.14 383.892H102.16H7.1787L3.61843 378.324L0.0581687 372.755L0.0290843 381.487L0 390.217L25.2349 389.523L50.4699 388.829L53.8916 394.435C57.9446 401.077 66.4834 407.177 75.0752 409.567C78.7347 410.585 108.71 411.292 148.416 411.298C217.281 411.308 219.772 411.551 213.689 417.643C212.328 419.006 214.793 421.568 222.671 426.981L233.53 434.44L226.943 434.982C220.889 435.48 220.612 435.719 223.522 437.927C226.394 440.105 225.996 440.333 219.226 440.383L211.765 440.437L215.804 443.847L219.843 447.259L212.263 444.671C208.095 443.249 204.122 442.677 203.438 443.403C202.754 444.128 197.606 458.972 192.001 476.39C183.113 504.007 181.303 508.178 177.858 508.994C174.812 509.713 172.917 512.628 169.604 521.684L165.305 533.438L169.033 536.461C172.602 539.355 172.651 539.795 170.212 546.721C166.667 556.782 166.881 557.658 173.651 560.893C176.944 562.466 179.639 564.49 179.639 565.393C179.639 568.643 176.219 569.037 171.084 566.378C168.207 564.887 165.103 564.13 164.191 564.695C160.97 566.69 162.59 570.271 167.663 572.375C172.506 574.385 174.128 577.324 171.722 579.731C171.132 580.322 168.337 579.608 165.509 578.143C158.075 574.292 155.923 578.357 162.02 584.729C165.96 588.85 166.149 589.542 163.594 590.524C161.931 591.163 159.394 590.462 157.653 588.884C155.309 586.76 154.149 586.595 152.583 588.163C149.841 590.91 150.031 593.795 153.12 596.364C154.532 597.537 155.687 599.559 155.687 600.856C155.687 604.403 150.881 603.696 148.446 599.791C147.271 597.906 144.955 596.364 143.299 596.364C140.917 596.364 140.289 597.825 140.289 603.36C140.289 611.61 136.91 611.848 134.814 603.745C133.287 597.841 130.806 596.986 110.081 595.219C98.5121 594.232 97.5933 594.419 93.4001 598.619C90.2709 601.753 88.9639 604.876 88.9639 609.222C88.9639 613.944 87.5661 616.824 82.9759 621.557C79.6825 624.953 76.988 628.659 76.988 629.79C76.988 633.541 116.964 650.838 146.193 659.738C165.563 665.636 166.975 668.33 150.696 668.33C141.095 668.33 138.578 668.861 138.578 670.886C138.578 673.115 150.741 673.497 233.85 673.885L329.12 674.327L330.501 679.664L331.881 685L340.875 683.389C345.821 682.503 355.465 679.909 362.307 677.623C369.149 675.339 378.196 673.47 382.409 673.47C387.881 673.47 390.072 672.776 390.072 671.042C390.072 669.707 389.14 668.304 388.002 667.924C386.863 667.543 390.905 663.887 396.984 659.797C411.624 649.947 427.697 637.014 427.704 635.078C427.707 634.225 425.856 631.092 423.589 628.116C421.324 625.14 418.342 620.056 416.967 616.816C415.59 613.577 409.831 605.272 404.17 598.36C384.909 574.842 370.232 544.26 374.237 535.991C375.272 533.856 376.05 530.928 375.966 529.485C375.65 523.983 382.04 494.235 384.331 490.557C386.709 486.734 387.07 486.701 427.541 486.701C461.815 486.701 468.694 487.114 470.492 489.283C472.453 491.65 501.267 655.636 501.274 664.474C501.277 668.151 500.644 668.33 487.59 668.33C476.566 668.33 473.904 668.83 473.904 670.9C473.904 673.09 478.466 673.47 504.699 673.47C530.266 673.47 535.494 673.054 535.494 671.02C535.494 669.671 533.763 668.321 531.645 668.021C527.373 667.413 529.628 678.549 504.843 535.686C499.01 502.073 493.334 474.136 491.883 471.919C488.352 466.522 488.533 466.14 494.648 466.14C499.763 466.14 499.946 465.898 498.904 460.571C496.388 447.699 486.53 440.002 471.317 439.032L460.213 438.325L465.351 432.463C468.177 429.24 471.602 423.931 472.964 420.669C475.202 415.304 476.095 414.735 482.275 414.735C490.702 414.735 496.285 410.281 502.678 398.457L507.31 389.889C518.935 362.633 533.342 336.782 546.614 310.213C561.885 279.643 568 265.671 568 261.35C568 257.842 565.482 250.288 562.012 243.387C558.719 236.837 558.599 233.008 556.024 230.579C550.036 224.932 546.324 224.539 517.619 224.539H467.236L464.35 214.236C462.437 207.41 459.225 201.385 454.829 196.383C447.827 188.416 430.749 176.766 418.132 171.349C414.229 169.673 414.879 170.47 404.69 148.785C404.178 149.299 403.759 144.191 403.759 137.438C403.759 126.595 404.132 125.157 406.95 125.157C408.705 125.157 412.098 123.615 414.491 121.731C418.69 118.422 441.021 80.7494 436.505 50.7636C431.988 20.7777 425.153 29.4394 425.153 29.4394L408.265 13.9847C408.265 13.9847 438.896 13.0671 394.382 2.78626C349.867 -7.49459 341.866 13.9847 341.866 13.9847C341.866 13.9847 285.534 11.5766 301.108 33.6288C316.683 55.681 307.952 32.0096 304.995 45.6505C302.039 59.2915 299.398 111.378 301.964 126.799ZM380.235 37.467C381.518 40.4827 377.833 51.5261 384.988 59.3309C393.448 67.8041 401.737 51.0754 408.892 66.1848C413.988 76.942 414.772 68.3456 409.809 83.2031C406.741 92.3822 403.728 98.1103 400.649 100.609C395.776 104.563 396.543 105.56 405.295 106.654C407.552 106.935 410.241 108.514 411.275 110.165C414.344 115.069 410.52 119.078 402.188 119.693C395.381 120.195 395.027 120.481 395.846 124.834C396.324 127.368 397.205 136.077 397.804 144.187L398.893 158.932L390.633 166.104C380.533 174.874 361.197 184.462 350.465 186.023C343.443 187.045 328.591 186.389 327.626 183.344C327.026 181.445 330.468 170.212 331.048 167.9C331.048 166.294 343.661 171.747 351.472 170.94C362.1 169.84 383.749 159.031 390.633 151.768C397.131 144.912 387.024 128.225 385.795 148.084C375 157.182 357.532 165.285 345.288 165.357C332.96 165.43 311.868 138.901 319.5 158.5C320.45 160.942 319.421 160.679 315 156.5C311.578 151.36 308.747 148.929 304.871 124.59C303.43 115.548 305.382 100.696 304.53 92.5297L304.871 84.0342C304.871 84.0342 312.217 78.3267 317.533 78.3267C322.848 78.3267 330.193 83.5167 330.193 81.464C330.193 79.4369 324.547 75.0025 317.533 75.0025C310.518 75.0025 307.457 78.8937 307.457 78.8937L308.417 66.1848C309.081 57.404 318 43.5 332.5 42.5C347.044 40.7197 354 40 360.257 38.5C366.515 37 379.208 35.054 380.235 37.467ZM360.988 75.8593C354.145 76.716 348.206 82.7765 349.578 83.3042C351.423 84.013 356.595 80.561 361.843 80.143C368.419 79.6191 375.113 81.8904 375.53 80.6192C376.399 77.9685 370.398 75.8593 360.988 75.8593ZM335.828 89.531C333.26 92.7866 325.261 115.595 326.409 118.593C327.531 121.52 341.327 122.769 343.026 120.014C343.609 119.07 342.114 117.546 339.705 116.63C334.561 114.669 334.513 114.229 337.999 100.752C340.636 90.5624 339.529 84.8395 335.828 89.531ZM310.335 93.5987C310.906 95.0894 311.373 96.6315 311.373 97.0256C311.373 97.4197 313.986 97.7419 317.178 97.7419C320.894 97.7419 323.358 96.7669 324.022 95.0312C325.606 90.8965 325.591 90.888 317.178 90.888C310.694 90.888 309.481 91.3677 310.335 93.5987ZM352.459 92.1731C352.586 98.3262 366.379 99.8957 367.515 93.8866C367.989 91.3849 366.784 90.888 360.257 90.888C355.955 90.888 352.446 91.4672 352.459 92.1731ZM318.217 133.725C318.217 137.596 319.599 137.983 331.354 137.411C342.333 136.874 342.169 136.192 347.301 136.192C352.892 133.194 351.472 133.271 351.472 129.013C351.472 122.526 347.058 132.011 332.196 132.011C324.017 132.011 318.217 132.722 318.217 133.725ZM422.332 180.071C440.563 189.209 453.981 201.481 457.567 212.291C462.434 226.969 466.97 254.683 472.194 301.659C475.016 327.038 477.325 348.562 477.325 349.493C477.325 350.425 482.906 351.413 489.729 351.689C499.39 352.082 502.133 352.762 502.133 354.763C502.133 356.96 497.712 357.299 471.674 357.1C454.923 356.972 440.83 356.48 440.357 356.006C439.883 355.531 438.371 340.6 436.997 322.826C434.036 284.495 433.88 283.681 428.575 278.366C422.95 272.734 418.128 273.162 407.653 280.227C398.192 286.608 395.205 287.533 395.203 284.082C395.2 278.75 384.245 259.581 376.534 251.415L368.031 242.411L388.409 227.216C411.56 209.952 416.927 204.918 414.069 203.148C413.011 202.494 410.722 202.99 408.984 204.253C407.244 205.514 398.156 212.331 388.789 219.399C379.422 226.467 367.987 234.959 363.378 238.271C356.76 243.028 354.82 245.538 354.145 250.216C353.388 255.448 351.443 257.39 337.414 266.898C328.684 272.815 320.853 277.657 320.015 277.657C316.624 277.657 314.302 231.777 317.038 218.825C318.249 213.095 318.046 212.327 315.45 212.827C310.954 213.695 309.498 221.7 309.986 242.861C310.229 253.409 309.936 262.532 309.336 263.133C308.735 263.735 306.872 261.273 305.196 257.662C303.519 254.052 296.653 245.55 289.938 238.768L277.728 226.438L289.201 213.066C295.511 205.711 303.519 196.995 306.999 193.696C319.928 190.662 321.639 199.229 364.109 187.92C396.274 179.355 395.205 168.757 406.447 173.135C407.574 173.135 414.722 176.257 422.332 180.071ZM218.581 222.289C216.945 222.718 213.866 222.733 211.737 222.324C209.609 221.914 210.947 221.563 214.711 221.544C218.475 221.525 220.216 221.861 218.581 222.289ZM166.241 271.125L186.206 311.714L186.771 334.099L187.337 356.482L137.723 356.478L88.1084 356.473L57.0173 293.054L25.9261 229.637L86.1016 230.086L146.277 230.536L166.241 271.125ZM221.383 239.532C222.223 246.879 224.454 252.632 230.158 262.157L237.807 274.931V312.276C237.807 358.396 238.796 356.477 215.038 356.477C193.034 356.477 192.47 355.956 192.47 335.627C192.47 322.557 192.939 319.637 195.036 319.637C197.084 319.637 197.702 322.665 198.097 334.63L198.591 349.623H214.778H230.964V331.631V313.64H221.588C212.369 313.64 212.157 313.527 208.713 306.765L205.211 299.889L218.078 291.772C226.086 286.721 230.95 282.521 230.955 280.655C230.96 279.005 230.652 277.657 230.271 277.657C229.889 277.657 223.958 281.127 217.091 285.368C210.222 289.608 204.003 293.078 203.27 293.078C201.527 293.078 193.325 276.841 193.325 273.389C193.325 271.92 196.381 265.873 200.116 259.952C205.079 252.082 207.214 246.559 208.049 239.431C209.178 229.818 209.272 229.68 214.726 229.68C220.189 229.68 220.271 229.801 221.383 239.532ZM292.975 249.935C297.449 255.867 301.108 261.574 301.108 262.619C301.108 266.024 259.395 306.263 251.99 310.002C248.028 312.003 244.372 313.64 243.864 313.64C243.355 313.64 242.94 305.437 242.94 295.412V277.186L257.162 263.858C264.984 256.528 273.261 247.758 275.554 244.369C277.846 240.98 280.874 238.418 282.282 238.677C283.69 238.936 288.501 244.002 292.975 249.935ZM381.588 267.486C384.372 271.831 386.651 276.094 386.651 276.958C386.651 280.099 337.282 310.093 319.856 317.54C288.221 331.059 258.733 341.055 250.493 341.055H242.777L243.285 330.661L243.795 320.268L263.985 311.918C301.96 296.212 341.654 273.639 358.772 258.014L366.976 250.526L371.751 255.054C374.377 257.546 378.805 263.14 381.588 267.486ZM313.084 277.367C313.084 281.56 311.322 282.895 295.1 290.974C285.208 295.9 276.568 299.932 275.899 299.932C275.23 299.932 279.938 294.627 286.361 288.145C293.964 280.47 299.047 276.62 300.925 277.112C302.511 277.528 305.23 276.296 306.965 274.376C310.831 270.097 313.084 271.199 313.084 277.367ZM104.404 277.35C100.225 281.536 99.2289 283.973 99.2289 290.013C99.2289 304.38 111.614 320.494 122.655 320.494C124.912 320.494 128.647 318.6 130.956 316.287C139.343 307.889 134.946 285.947 123.181 277.467C115.102 271.644 110.132 271.613 104.404 277.35ZM425.163 282.818C427.656 285.577 428.719 291.658 430.477 313.232C431.685 328.064 432.712 343.86 432.76 348.338L432.843 356.477H403.759H374.675V350.54C374.675 342.192 371.431 341.055 347.597 341.055C324.846 341.055 325.06 341.17 325.06 328.939C325.06 322.315 325.197 322.175 338.319 315.473C345.611 311.748 357.217 304.894 364.109 300.244L376.637 291.788L383.109 295.338L389.581 298.889L404.623 289.129C412.897 283.762 420.202 279.37 420.857 279.37C421.512 279.37 423.449 280.921 425.163 282.818ZM318.889 328.345C319.461 329.836 319.928 333.305 319.928 336.056V341.055L298.97 340.939C276.053 340.812 276.039 341.124 299.398 331.782C316.451 324.964 317.522 324.774 318.889 328.345ZM407.181 410.451C407.181 412.691 398.816 413.021 342.169 413.021H277.157V428.256C277.157 439.774 276.33 445.312 273.773 450.96C271.605 455.742 270.389 462.127 270.389 468.71C270.389 475.293 271.605 481.677 273.773 486.46C276.674 492.865 277.157 497.686 277.157 520.301V546.673H266.036H254.916V477.277V407.881H331.048C397.581 407.881 407.181 408.205 407.181 410.451ZM483.999 471.981C485.982 473.78 488.336 478.021 489.229 481.405C490.962 487.964 517.811 643.387 518.709 652.052C519.179 656.591 518.666 657.257 514.327 657.754C511.626 658.064 508.735 657.636 507.903 656.803C506.304 655.201 503.816 641.611 488.519 550.957C483.27 519.857 478.112 492.255 477.055 489.619C473.341 480.36 469.255 479.62 424.91 480.188L384.639 480.704L380.63 485.373C377.896 488.559 375.934 494.146 374.457 502.952C371.925 518.041 370.298 521.504 367.763 517.199C366.818 515.597 364.754 512.993 363.176 511.413C360.492 508.723 360.499 507.59 363.286 493.764C366.509 477.777 370.086 471.179 376.539 469.313C378.808 468.658 403.102 468.254 430.529 468.415C476.966 468.689 480.641 468.934 483.999 471.981ZM359.277 481.378C359.277 486.213 353.98 511.358 352.665 512.773C352.037 513.449 347.407 506.608 342.376 497.573C331.849 478.67 331.999 478.201 348.584 478.16C357.944 478.137 359.277 478.538 359.277 481.378ZM249.783 521.627C249.783 551.687 249.939 553.169 253.205 554.024C256.467 554.877 256.626 556.361 256.626 585.819V616.718L250.211 617.251C244.844 617.695 243.698 618.483 243.203 622.066C242.406 627.84 239.853 630.633 235.374 630.633C230.315 630.633 227.542 633.788 227.542 639.543V644.341H208.608C191.36 644.341 189.756 644.074 190.607 641.342C191.12 639.694 192.701 632.234 194.119 624.763C199.789 594.899 213.785 562.216 223.125 557.033C226.659 555.069 229.232 551.31 232.011 544.046C237.012 530.966 236.993 529.829 231.744 528.51C229.351 527.909 227.619 526.93 227.895 526.336C233.443 514.398 247.075 490.128 248.231 490.128C249.104 490.128 249.783 503.917 249.783 521.627ZM300.232 503.903C299.254 506.991 299.661 507.261 303.731 506.238L308.337 505.082L305.382 509.598L302.426 514.117H308.162H313.899L307.504 518.675C303.986 521.182 301.108 523.961 301.108 524.853C301.108 525.744 303.589 529.612 306.622 533.448C310.19 537.96 311.397 540.667 310.044 541.12C306.763 542.214 307.488 544.797 314.367 556.479C320.046 566.123 321.288 567.279 325.18 566.553C328.701 565.895 330.189 566.765 332.638 570.917C335.046 575.002 336.477 575.86 339.361 574.957C348.709 572.034 350.723 571.976 350.723 574.635C350.723 576.102 348.121 578.237 344.913 579.398L339.103 581.503L333.541 609.922C330.482 625.554 327.296 639.694 326.46 641.342C325.248 643.733 322.694 644.341 313.88 644.341C302.835 644.341 302.819 644.334 302.819 639.41C302.819 633.777 300.398 631.219 294.265 630.369C291.11 629.932 289.483 628.203 288.063 623.779C286.383 618.548 285.341 617.714 279.899 617.247L273.658 616.715L274.125 585.548C274.585 554.695 274.628 554.378 278.44 553.835C282.226 553.297 282.289 552.888 282.289 528.892V504.494L289.56 502.707C300.843 499.934 301.468 500.005 300.232 503.903ZM213.855 530.316C219.972 531.853 225.905 533.426 227.039 533.812C230.302 534.92 224.579 550.1 220.897 550.1C210.634 550.1 172.795 535.367 172.795 531.372C172.795 530.402 174.003 526.582 175.481 522.885L178.166 516.164L190.451 521.841C197.207 524.965 207.739 528.777 213.855 530.316ZM366.793 526.797L370.033 532.874L365.937 536.397C353.724 546.901 331.276 560.237 325.628 560.343C323.594 560.381 316.506 550.179 316.506 547.214C316.506 546.32 320.987 543.445 326.461 540.823C331.938 538.203 341.755 531.983 348.275 527.004C355.074 521.814 360.863 518.541 361.843 519.336C362.784 520.097 365.012 523.455 366.793 526.797ZM355.855 586.564C355.855 587.771 353.469 589.66 350.552 590.764C343.734 593.341 344.93 597.193 352.584 597.308C359.275 597.409 360.908 602.008 354.572 602.909C347.974 603.846 350.328 611.022 357.566 612.04C363.683 612.9 363.044 617.645 356.716 618.365C349.435 619.194 348.345 622.259 353.785 626.615C359.72 631.365 357.53 633.642 349.739 630.82C344.586 628.954 343.101 629.036 339.519 631.387C334.265 634.835 334.251 634.523 338.74 612.674C340.619 603.531 341.712 594.278 341.168 592.113C340.371 588.926 341.106 587.837 345.024 586.407C351.809 583.931 355.855 583.991 355.855 586.564ZM121.915 632.994C137.196 639.005 153.933 644.891 159.108 646.072C171.043 648.796 172.563 649.714 167.955 651.421C165.912 652.178 164.241 653.979 164.241 655.424C164.241 656.906 162.753 658.049 160.819 658.049C158.309 658.049 157.398 656.906 157.398 653.765C157.398 649.06 153.264 647.83 151.646 652.052C149.998 656.352 145.422 655.093 145.422 650.338C145.422 645.633 141.288 644.403 139.67 648.625C138.101 652.72 135.157 651.601 135.157 646.911C135.157 642.146 131.015 640.998 129.364 645.306C127.944 649.014 124.397 646.421 125.437 642.436C126.57 638.099 123.181 636.252 120.594 639.795C117.386 644.19 114.076 643.347 115.302 638.448C116.693 632.904 113.301 631.032 110.115 635.589C106.408 640.89 103.891 640.105 105.217 634.06C106.086 630.097 105.746 628.92 103.727 628.92C102.288 628.92 100.391 630.207 99.5112 631.779C98.1152 634.281 97.2392 634.36 92.5464 632.413C89.5952 631.188 86.7449 629.482 86.2128 628.622C84.9399 626.558 88.7397 622.066 91.756 622.066C93.0613 622.066 106.633 626.983 121.915 632.994ZM420.867 634.266C420.867 636.778 413.413 639.936 412.679 637.732C412.322 636.656 410.854 635.774 409.418 635.774C407.523 635.774 407.09 636.892 407.834 639.862C408.95 644.315 404.982 649.421 402.955 646.138C402.346 645.15 400.654 644.341 399.196 644.341C397.253 644.341 396.82 645.438 397.573 648.446C398.63 652.658 394.649 656.166 392.592 652.833C390.596 649.598 386.211 651.037 387.145 654.62C388.206 658.681 385.443 660.951 382.738 658.242C379.711 655.211 378.096 656.005 378.096 660.518C378.096 665.501 375.08 667.953 373.624 664.154C371.973 659.846 367.831 660.994 367.831 665.759C367.831 670.597 365.845 671.27 362.714 667.492C360.119 664.358 357.566 665.674 357.566 670.144C357.566 674.203 354.884 674.49 352.743 670.66C350.805 667.188 347.301 669.063 347.301 673.571C347.301 675.401 346.34 676.907 345.163 676.921C343.987 676.933 341.394 677.382 339.401 677.918C336.514 678.694 335.606 677.994 334.934 674.469C334.136 670.292 334.764 669.846 346.256 666.429C368.974 659.673 387.814 649.416 406.982 633.371C414.096 627.417 414.65 627.242 417.675 629.985C419.432 631.576 420.867 633.501 420.867 634.266ZM318.224 654.193C318.227 655.842 319.755 659.697 321.62 662.761L325.011 668.33H247.191C163.09 668.33 166.311 668.696 171.127 659.682C175.447 651.598 177.899 651.337 250.211 651.263C313.861 651.2 318.217 651.387 318.224 654.193Z" fill="black"/>
</svg>
